<svg xmlns="http://www.w3.org/2000/svg" xmlns:xlink="http://www.w3.org/1999/xlink" width="39" height="35" version="1.1" viewBox="0 0 39 35"><title>Group</title><desc>Created with Sketch.</desc><g id="icon/block-state" fill="none" fill-rule="evenodd" stroke="none" stroke-width="1" transform="translate(-5.000000, -3.000000)"><g id="Group" transform="translate(5.000000, 3.000000)"><path id="Combined-Shape" fill="#FF2A58" d="M17.5400341,0.000851765436 L17.5405196,-3.55271368e-15 L27.8507406,0 C28.8505132,0 29.7742736,0.540871052 30.2746877,1.41818945 L38.6254812,16.0813314 C39.1248396,16.9597145 39.1248396,18.0414566 38.6254812,18.918775 L35.4321512,24.5250971 L30.2740543,33.5818105 C29.7746959,34.4591289 28.8509355,35 27.8501072,35 L11.1495761,35 C10.1498035,35 9.22604314,34.4591289 8.72562897,33.5818105 L5.53205753,27.9739999 L25.4652219,27.9739999 L31.429833,17.500903 L25.4647997,7.02706485 L13.5350948,7.02706485 L13.6395061,6.84388701 L13.5352003,7.02685191 L7.5703479,17.5003726 L13.5352003,27.9738934 L5.53174081,27.9738934 L0.374518833,18.9185621 C-0.124839611,18.0412437 -0.124839611,16.9595016 0.374518833,16.0811185 L8.72531225,1.41904122 C9.22572642,0.54065811 10.1494868,0.000851765436 11.1492594,0.000851765436 L17.5400341,0.000851765436 Z"/><polygon id="Fill-11" fill="#FFF" points="11.218 3 27.719 3.038 36 17.538 27.783 32 11.282 31.962 3 17.462" transform="translate(19.500000, 17.500000) rotate(-180.000000) translate(-19.500000, -17.500000)"/></g></g></svg>